<mxfile modified="2024-05-26T15:56:36.031Z" host="app.diagrams.net" agent="Mozilla/5.0 (X11; Ubuntu; Linux x86_64; rv:124.0) Gecko/20100101 Firefox/124.0" etag="BAgZmFpklBCc9SA--0JZ" version="24.4.8" type="github">
  <diagram id="Ht1M8jgEwFfnCIfOTk4-" name="Page-1">
    <mxGraphModel dx="1364" dy="766" grid="1" gridSize="10" guides="1" tooltips="1" connect="1" arrows="1" fold="1" page="1" pageScale="1" pageWidth="1169" pageHeight="827" math="0" shadow="0">
      <root>
        <mxCell id="0" />
        <mxCell id="1" parent="0" />
        <mxCell id="UEzPUAAOIrF-is8g5C7q-107" value="" style="rounded=0;whiteSpace=wrap;html=1;labelBackgroundColor=none;fillColor=none;dashed=1;container=1;pointerEvents=0;collapsible=0;recursiveResize=0;" parent="1" vertex="1">
          <mxGeometry x="340" y="290" width="480" height="430" as="geometry" />
        </mxCell>
        <mxCell id="UEzPUAAOIrF-is8g5C7q-74" value="AWS Cloud" style="points=[[0,0],[0.25,0],[0.5,0],[0.75,0],[1,0],[1,0.25],[1,0.5],[1,0.75],[1,1],[0.75,1],[0.5,1],[0.25,1],[0,1],[0,0.75],[0,0.5],[0,0.25]];outlineConnect=0;gradientColor=none;html=1;whiteSpace=wrap;fontSize=12;fontStyle=0;shape=mxgraph.aws4.group;grIcon=mxgraph.aws4.group_aws_cloud_alt;strokeColor=#232F3E;fillColor=none;verticalAlign=top;align=left;spacingLeft=30;fontColor=#232F3E;dashed=0;labelBackgroundColor=#ffffff;container=1;pointerEvents=0;collapsible=0;recursiveResize=0;" parent="1" vertex="1">
          <mxGeometry x="50" y="80" width="780" height="650" as="geometry" />
        </mxCell>
        <mxCell id="UEzPUAAOIrF-is8g5C7q-75" value="AWS Cloud" style="points=[[0,0],[0.25,0],[0.5,0],[0.75,0],[1,0],[1,0.25],[1,0.5],[1,0.75],[1,1],[0.75,1],[0.5,1],[0.25,1],[0,1],[0,0.75],[0,0.5],[0,0.25]];outlineConnect=0;gradientColor=none;html=1;whiteSpace=wrap;fontSize=12;fontStyle=0;shape=mxgraph.aws4.group;grIcon=mxgraph.aws4.group_aws_cloud_alt;strokeColor=#232F3E;fillColor=none;verticalAlign=top;align=left;spacingLeft=30;fontColor=#232F3E;dashed=0;labelBackgroundColor=#ffffff;container=1;pointerEvents=0;collapsible=0;recursiveResize=0;" parent="1" vertex="1">
          <mxGeometry x="850" y="80" width="270" height="650" as="geometry" />
        </mxCell>
        <mxCell id="UEzPUAAOIrF-is8g5C7q-88" value="" style="edgeStyle=orthogonalEdgeStyle;rounded=0;orthogonalLoop=1;jettySize=auto;html=1;endArrow=open;endFill=0;strokeWidth=2;" parent="1" source="UEzPUAAOIrF-is8g5C7q-76" target="UEzPUAAOIrF-is8g5C7q-77" edge="1">
          <mxGeometry relative="1" as="geometry" />
        </mxCell>
        <mxCell id="UEzPUAAOIrF-is8g5C7q-89" value="" style="edgeStyle=orthogonalEdgeStyle;rounded=0;orthogonalLoop=1;jettySize=auto;html=1;endArrow=open;endFill=0;strokeWidth=2;" parent="1" source="UEzPUAAOIrF-is8g5C7q-77" target="UEzPUAAOIrF-is8g5C7q-79" edge="1">
          <mxGeometry relative="1" as="geometry">
            <Array as="points">
              <mxPoint x="248" y="350" />
            </Array>
          </mxGeometry>
        </mxCell>
        <mxCell id="UEzPUAAOIrF-is8g5C7q-106" style="edgeStyle=orthogonalEdgeStyle;rounded=0;orthogonalLoop=1;jettySize=auto;html=1;endArrow=open;endFill=0;strokeWidth=2;" parent="1" source="UEzPUAAOIrF-is8g5C7q-77" target="UEzPUAAOIrF-is8g5C7q-78" edge="1">
          <mxGeometry relative="1" as="geometry" />
        </mxCell>
        <mxCell id="UEzPUAAOIrF-is8g5C7q-104" style="edgeStyle=orthogonalEdgeStyle;rounded=0;orthogonalLoop=1;jettySize=auto;html=1;endArrow=open;endFill=0;strokeWidth=2;" parent="1" source="UEzPUAAOIrF-is8g5C7q-78" target="UEzPUAAOIrF-is8g5C7q-84" edge="1">
          <mxGeometry relative="1" as="geometry" />
        </mxCell>
        <mxCell id="UEzPUAAOIrF-is8g5C7q-90" value="" style="edgeStyle=orthogonalEdgeStyle;rounded=0;orthogonalLoop=1;jettySize=auto;html=1;endArrow=open;endFill=0;strokeWidth=2;" parent="1" source="UEzPUAAOIrF-is8g5C7q-79" target="UEzPUAAOIrF-is8g5C7q-80" edge="1">
          <mxGeometry relative="1" as="geometry" />
        </mxCell>
        <mxCell id="UEzPUAAOIrF-is8g5C7q-91" value="" style="edgeStyle=orthogonalEdgeStyle;rounded=0;orthogonalLoop=1;jettySize=auto;html=1;endArrow=open;endFill=0;strokeWidth=2;" parent="1" source="UEzPUAAOIrF-is8g5C7q-80" target="UEzPUAAOIrF-is8g5C7q-81" edge="1">
          <mxGeometry relative="1" as="geometry" />
        </mxCell>
        <mxCell id="UEzPUAAOIrF-is8g5C7q-92" value="" style="edgeStyle=orthogonalEdgeStyle;rounded=0;orthogonalLoop=1;jettySize=auto;html=1;endArrow=open;endFill=0;strokeWidth=2;" parent="1" source="UEzPUAAOIrF-is8g5C7q-81" target="UEzPUAAOIrF-is8g5C7q-82" edge="1">
          <mxGeometry relative="1" as="geometry" />
        </mxCell>
        <mxCell id="UEzPUAAOIrF-is8g5C7q-93" style="edgeStyle=orthogonalEdgeStyle;rounded=0;orthogonalLoop=1;jettySize=auto;html=1;endArrow=open;endFill=0;strokeWidth=2;" parent="1" source="UEzPUAAOIrF-is8g5C7q-82" target="UEzPUAAOIrF-is8g5C7q-85" edge="1">
          <mxGeometry relative="1" as="geometry">
            <Array as="points">
              <mxPoint x="762" y="480" />
            </Array>
          </mxGeometry>
        </mxCell>
        <mxCell id="UEzPUAAOIrF-is8g5C7q-105" value="Monitor template" style="edgeStyle=orthogonalEdgeStyle;rounded=0;orthogonalLoop=1;jettySize=auto;html=1;endArrow=open;endFill=0;strokeWidth=2;" parent="1" source="UEzPUAAOIrF-is8g5C7q-83" target="UEzPUAAOIrF-is8g5C7q-80" edge="1">
          <mxGeometry x="0.1208" y="-10" relative="1" as="geometry">
            <Array as="points">
              <mxPoint x="919" y="270" />
              <mxPoint x="519" y="270" />
            </Array>
            <mxPoint as="offset" />
          </mxGeometry>
        </mxCell>
        <mxCell id="UEzPUAAOIrF-is8g5C7q-101" value="" style="edgeStyle=orthogonalEdgeStyle;rounded=0;orthogonalLoop=1;jettySize=auto;html=1;endArrow=open;endFill=0;strokeWidth=2;" parent="1" source="UEzPUAAOIrF-is8g5C7q-84" target="UEzPUAAOIrF-is8g5C7q-83" edge="1">
          <mxGeometry relative="1" as="geometry" />
        </mxCell>
        <mxCell id="UEzPUAAOIrF-is8g5C7q-96" style="edgeStyle=orthogonalEdgeStyle;rounded=0;orthogonalLoop=1;jettySize=auto;html=1;endArrow=open;endFill=0;strokeWidth=2;startArrow=open;startFill=0;" parent="1" source="UEzPUAAOIrF-is8g5C7q-85" target="UEzPUAAOIrF-is8g5C7q-86" edge="1">
          <mxGeometry relative="1" as="geometry">
            <Array as="points">
              <mxPoint x="638" y="560" />
              <mxPoint x="528" y="560" />
            </Array>
          </mxGeometry>
        </mxCell>
        <mxCell id="UEzPUAAOIrF-is8g5C7q-97" style="edgeStyle=orthogonalEdgeStyle;rounded=0;orthogonalLoop=1;jettySize=auto;html=1;endArrow=open;endFill=0;strokeWidth=2;startArrow=open;startFill=0;" parent="1" source="UEzPUAAOIrF-is8g5C7q-85" target="UEzPUAAOIrF-is8g5C7q-87" edge="1">
          <mxGeometry relative="1" as="geometry">
            <Array as="points">
              <mxPoint x="684" y="560" />
              <mxPoint x="859" y="560" />
            </Array>
          </mxGeometry>
        </mxCell>
        <mxCell id="UEzPUAAOIrF-is8g5C7q-100" style="edgeStyle=orthogonalEdgeStyle;rounded=0;orthogonalLoop=1;jettySize=auto;html=1;endArrow=open;endFill=0;strokeWidth=2;" parent="1" source="UEzPUAAOIrF-is8g5C7q-86" target="UEzPUAAOIrF-is8g5C7q-98" edge="1">
          <mxGeometry relative="1" as="geometry" />
        </mxCell>
        <mxCell id="UEzPUAAOIrF-is8g5C7q-76" value="Object" style="outlineConnect=0;fontColor=#232F3E;gradientColor=none;fillColor=#277116;strokeColor=none;dashed=0;verticalLabelPosition=bottom;verticalAlign=top;align=center;html=1;fontSize=12;fontStyle=0;aspect=fixed;pointerEvents=1;shape=mxgraph.aws4.object;labelBackgroundColor=#ffffff;" parent="1" vertex="1">
          <mxGeometry x="90" y="140" width="78" height="78" as="geometry" />
        </mxCell>
        <mxCell id="UEzPUAAOIrF-is8g5C7q-77" value="Bucket" style="outlineConnect=0;fontColor=#232F3E;gradientColor=none;fillColor=#277116;strokeColor=none;dashed=0;verticalLabelPosition=bottom;verticalAlign=top;align=center;html=1;fontSize=12;fontStyle=0;aspect=fixed;pointerEvents=1;shape=mxgraph.aws4.bucket_with_objects;labelBackgroundColor=#ffffff;" parent="1" vertex="1">
          <mxGeometry x="210" y="140" width="75" height="78" as="geometry" />
        </mxCell>
        <mxCell id="UEzPUAAOIrF-is8g5C7q-78" value="Bucket" style="outlineConnect=0;fontColor=#232F3E;gradientColor=none;fillColor=#277116;strokeColor=none;dashed=0;verticalLabelPosition=bottom;verticalAlign=top;align=center;html=1;fontSize=12;fontStyle=0;aspect=fixed;pointerEvents=1;shape=mxgraph.aws4.bucket_with_objects;labelBackgroundColor=#ffffff;" parent="1" vertex="1">
          <mxGeometry x="1020" y="140" width="75" height="78" as="geometry" />
        </mxCell>
        <mxCell id="UEzPUAAOIrF-is8g5C7q-79" value="AWS&lt;br&gt;CloudTrail" style="outlineConnect=0;fontColor=#232F3E;gradientColor=#F34482;gradientDirection=north;fillColor=#BC1356;strokeColor=#ffffff;dashed=0;verticalLabelPosition=bottom;verticalAlign=top;align=center;html=1;fontSize=12;fontStyle=0;aspect=fixed;shape=mxgraph.aws4.resourceIcon;resIcon=mxgraph.aws4.cloudtrail;labelBackgroundColor=#ffffff;" parent="1" vertex="1">
          <mxGeometry x="370" y="310" width="78" height="78" as="geometry" />
        </mxCell>
        <mxCell id="UEzPUAAOIrF-is8g5C7q-80" value="Amazon&lt;br&gt;CloudWatch" style="outlineConnect=0;fontColor=#232F3E;gradientColor=#F34482;gradientDirection=north;fillColor=#BC1356;strokeColor=#ffffff;dashed=0;verticalLabelPosition=bottom;verticalAlign=top;align=center;html=1;fontSize=12;fontStyle=0;aspect=fixed;shape=mxgraph.aws4.resourceIcon;resIcon=mxgraph.aws4.cloudwatch;labelBackgroundColor=#ffffff;" parent="1" vertex="1">
          <mxGeometry x="480" y="310" width="78" height="78" as="geometry" />
        </mxCell>
        <mxCell id="UEzPUAAOIrF-is8g5C7q-81" value="Amazon Simple&lt;br&gt;Notification Service&lt;br&gt;" style="outlineConnect=0;fontColor=#232F3E;gradientColor=#F34482;gradientDirection=north;fillColor=#BC1356;strokeColor=#ffffff;dashed=0;verticalLabelPosition=bottom;verticalAlign=top;align=center;html=1;fontSize=12;fontStyle=0;aspect=fixed;shape=mxgraph.aws4.resourceIcon;resIcon=mxgraph.aws4.sns;labelBackgroundColor=#ffffff;" parent="1" vertex="1">
          <mxGeometry x="600" y="310" width="78" height="78" as="geometry" />
        </mxCell>
        <mxCell id="UEzPUAAOIrF-is8g5C7q-82" value="Amazon Simple&lt;br&gt;Queue Service&lt;br&gt;" style="outlineConnect=0;fontColor=#232F3E;gradientColor=#F34482;gradientDirection=north;fillColor=#BC1356;strokeColor=#ffffff;dashed=0;verticalLabelPosition=bottom;verticalAlign=top;align=center;html=1;fontSize=12;fontStyle=0;aspect=fixed;shape=mxgraph.aws4.resourceIcon;resIcon=mxgraph.aws4.sqs;labelBackgroundColor=#ffffff;" parent="1" vertex="1">
          <mxGeometry x="723" y="310" width="78" height="78" as="geometry" />
        </mxCell>
        <mxCell id="UEzPUAAOIrF-is8g5C7q-83" value="Amazon&lt;br&gt;CloudWatch&lt;br&gt;" style="outlineConnect=0;fontColor=#232F3E;gradientColor=#F34482;gradientDirection=north;fillColor=#BC1356;strokeColor=#ffffff;dashed=0;verticalLabelPosition=bottom;verticalAlign=top;align=center;html=1;fontSize=12;fontStyle=0;aspect=fixed;shape=mxgraph.aws4.resourceIcon;resIcon=mxgraph.aws4.cloudwatch;labelBackgroundColor=#ffffff;" parent="1" vertex="1">
          <mxGeometry x="880" y="310" width="78" height="78" as="geometry" />
        </mxCell>
        <mxCell id="UEzPUAAOIrF-is8g5C7q-84" value="AWS&lt;br&gt;CloudTrail" style="outlineConnect=0;fontColor=#232F3E;gradientColor=#F34482;gradientDirection=north;fillColor=#BC1356;strokeColor=#ffffff;dashed=0;verticalLabelPosition=bottom;verticalAlign=top;align=center;html=1;fontSize=12;fontStyle=0;aspect=fixed;shape=mxgraph.aws4.resourceIcon;resIcon=mxgraph.aws4.cloudtrail;labelBackgroundColor=#ffffff;" parent="1" vertex="1">
          <mxGeometry x="1018.5" y="310" width="78" height="78" as="geometry" />
        </mxCell>
        <mxCell id="UEzPUAAOIrF-is8g5C7q-85" value="AWS Lambda" style="outlineConnect=0;fontColor=#232F3E;gradientColor=#F78E04;gradientDirection=north;fillColor=#D05C17;strokeColor=#ffffff;dashed=0;verticalLabelPosition=bottom;verticalAlign=top;align=center;html=1;fontSize=12;fontStyle=0;aspect=fixed;shape=mxgraph.aws4.resourceIcon;resIcon=mxgraph.aws4.lambda;labelBackgroundColor=#ffffff;spacingTop=6;" parent="1" vertex="1">
          <mxGeometry x="599" y="450" width="78" height="78" as="geometry" />
        </mxCell>
        <mxCell id="UEzPUAAOIrF-is8g5C7q-86" value="Amazon Kinesis&lt;br&gt;Data&amp;nbsp;Firehose" style="outlineConnect=0;fontColor=#232F3E;gradientColor=#945DF2;gradientDirection=north;fillColor=#5A30B5;strokeColor=#ffffff;dashed=0;verticalLabelPosition=bottom;verticalAlign=top;align=center;html=1;fontSize=12;fontStyle=0;aspect=fixed;shape=mxgraph.aws4.resourceIcon;resIcon=mxgraph.aws4.kinesis_data_firehose;labelBackgroundColor=#ffffff;" parent="1" vertex="1">
          <mxGeometry x="489" y="590" width="78" height="78" as="geometry" />
        </mxCell>
        <mxCell id="UEzPUAAOIrF-is8g5C7q-87" value="Amazon&lt;br&gt;DynamoDB" style="outlineConnect=0;fontColor=#232F3E;gradientColor=#4D72F3;gradientDirection=north;fillColor=#3334B9;strokeColor=#ffffff;dashed=0;verticalLabelPosition=bottom;verticalAlign=top;align=center;html=1;fontSize=12;fontStyle=0;aspect=fixed;shape=mxgraph.aws4.resourceIcon;resIcon=mxgraph.aws4.dynamodb;labelBackgroundColor=#ffffff;" parent="1" vertex="1">
          <mxGeometry x="710" y="590" width="78" height="78" as="geometry" />
        </mxCell>
        <mxCell id="UEzPUAAOIrF-is8g5C7q-98" value="Bucket" style="outlineConnect=0;fontColor=#232F3E;gradientColor=none;fillColor=#277116;strokeColor=none;dashed=0;verticalLabelPosition=bottom;verticalAlign=top;align=center;html=1;fontSize=12;fontStyle=0;aspect=fixed;pointerEvents=1;shape=mxgraph.aws4.bucket;labelBackgroundColor=#ffffff;" parent="1" vertex="1">
          <mxGeometry x="120" y="590" width="75" height="78" as="geometry" />
        </mxCell>
        <mxCell id="UEzPUAAOIrF-is8g5C7q-108" value="" style="rounded=0;whiteSpace=wrap;html=1;labelBackgroundColor=none;fillColor=none;dashed=1;container=1;pointerEvents=0;collapsible=0;recursiveResize=0;" parent="1" vertex="1">
          <mxGeometry x="860" y="290" width="250" height="430" as="geometry" />
        </mxCell>
        <mxCell id="-xRFjcVjvACScI0wOPfe-22" style="edgeStyle=orthogonalEdgeStyle;rounded=0;orthogonalLoop=1;jettySize=auto;html=1;entryX=0;entryY=0.5;entryDx=0;entryDy=0;entryPerimeter=0;" edge="1" parent="1" source="-xRFjcVjvACScI0wOPfe-1" target="-xRFjcVjvACScI0wOPfe-20">
          <mxGeometry relative="1" as="geometry">
            <mxPoint x="450" y="1200" as="targetPoint" />
          </mxGeometry>
        </mxCell>
        <mxCell id="-xRFjcVjvACScI0wOPfe-23" value="TRIGGERS" style="edgeLabel;html=1;align=center;verticalAlign=middle;resizable=0;points=[];" vertex="1" connectable="0" parent="-xRFjcVjvACScI0wOPfe-22">
          <mxGeometry x="0.0598" y="-1" relative="1" as="geometry">
            <mxPoint as="offset" />
          </mxGeometry>
        </mxCell>
        <mxCell id="-xRFjcVjvACScI0wOPfe-37" style="edgeStyle=orthogonalEdgeStyle;rounded=0;orthogonalLoop=1;jettySize=auto;html=1;" edge="1" parent="1" source="-xRFjcVjvACScI0wOPfe-1" target="-xRFjcVjvACScI0wOPfe-27">
          <mxGeometry relative="1" as="geometry" />
        </mxCell>
        <mxCell id="-xRFjcVjvACScI0wOPfe-1" value="Bucket" style="outlineConnect=0;fontColor=#232F3E;gradientColor=none;fillColor=#277116;strokeColor=none;dashed=0;verticalLabelPosition=bottom;verticalAlign=top;align=center;html=1;fontSize=12;fontStyle=0;aspect=fixed;pointerEvents=1;shape=mxgraph.aws4.bucket;labelBackgroundColor=#ffffff;" vertex="1" parent="1">
          <mxGeometry x="250" y="1161" width="85.58" height="89" as="geometry" />
        </mxCell>
        <mxCell id="-xRFjcVjvACScI0wOPfe-34" style="edgeStyle=orthogonalEdgeStyle;rounded=0;orthogonalLoop=1;jettySize=auto;html=1;" edge="1" parent="1" source="-xRFjcVjvACScI0wOPfe-2" target="-xRFjcVjvACScI0wOPfe-27">
          <mxGeometry relative="1" as="geometry" />
        </mxCell>
        <mxCell id="-xRFjcVjvACScI0wOPfe-35" style="edgeStyle=orthogonalEdgeStyle;rounded=0;orthogonalLoop=1;jettySize=auto;html=1;" edge="1" parent="1" source="-xRFjcVjvACScI0wOPfe-2" target="-xRFjcVjvACScI0wOPfe-30">
          <mxGeometry relative="1" as="geometry" />
        </mxCell>
        <mxCell id="-xRFjcVjvACScI0wOPfe-2" value="AWS SECRETS" style="sketch=0;points=[[0,0,0],[0.25,0,0],[0.5,0,0],[0.75,0,0],[1,0,0],[0,1,0],[0.25,1,0],[0.5,1,0],[0.75,1,0],[1,1,0],[0,0.25,0],[0,0.5,0],[0,0.75,0],[1,0.25,0],[1,0.5,0],[1,0.75,0]];outlineConnect=0;fontColor=#232F3E;fillColor=#DD344C;strokeColor=#ffffff;dashed=0;verticalLabelPosition=bottom;verticalAlign=top;align=center;html=1;fontSize=12;fontStyle=0;aspect=fixed;shape=mxgraph.aws4.resourceIcon;resIcon=mxgraph.aws4.secrets_manager;" vertex="1" parent="1">
          <mxGeometry x="10" y="1400" width="78" height="78" as="geometry" />
        </mxCell>
        <mxCell id="-xRFjcVjvACScI0wOPfe-11" value="PUSH ON REGISTRY" style="edgeStyle=orthogonalEdgeStyle;rounded=0;orthogonalLoop=1;jettySize=auto;html=1;" edge="1" parent="1" source="-xRFjcVjvACScI0wOPfe-4" target="-xRFjcVjvACScI0wOPfe-10">
          <mxGeometry relative="1" as="geometry" />
        </mxCell>
        <mxCell id="-xRFjcVjvACScI0wOPfe-4" value="" style="image;sketch=0;aspect=fixed;html=1;points=[];align=center;fontSize=12;image=img/lib/mscae/Docker.svg;" vertex="1" parent="1">
          <mxGeometry x="386.1" y="944" width="93.9" height="77" as="geometry" />
        </mxCell>
        <mxCell id="-xRFjcVjvACScI0wOPfe-6" style="edgeStyle=orthogonalEdgeStyle;rounded=0;orthogonalLoop=1;jettySize=auto;html=1;entryX=0;entryY=0.5;entryDx=0;entryDy=0;entryPerimeter=0;" edge="1" parent="1" source="-xRFjcVjvACScI0wOPfe-5">
          <mxGeometry relative="1" as="geometry">
            <mxPoint x="370" y="982" as="targetPoint" />
          </mxGeometry>
        </mxCell>
        <mxCell id="-xRFjcVjvACScI0wOPfe-7" value="CD PROCESS ON DEPLOY" style="edgeLabel;html=1;align=center;verticalAlign=middle;resizable=0;points=[];" vertex="1" connectable="0" parent="-xRFjcVjvACScI0wOPfe-6">
          <mxGeometry x="0.1317" relative="1" as="geometry">
            <mxPoint x="-19" as="offset" />
          </mxGeometry>
        </mxCell>
        <mxCell id="-xRFjcVjvACScI0wOPfe-5" value="" style="dashed=0;outlineConnect=0;html=1;align=center;labelPosition=center;verticalLabelPosition=bottom;verticalAlign=top;shape=mxgraph.weblogos.github" vertex="1" parent="1">
          <mxGeometry x="45" y="946" width="75" height="75" as="geometry" />
        </mxCell>
        <mxCell id="-xRFjcVjvACScI0wOPfe-29" style="edgeStyle=orthogonalEdgeStyle;rounded=0;orthogonalLoop=1;jettySize=auto;html=1;entryX=0.5;entryY=0;entryDx=0;entryDy=0;entryPerimeter=0;" edge="1" parent="1" source="-xRFjcVjvACScI0wOPfe-10" target="-xRFjcVjvACScI0wOPfe-27">
          <mxGeometry relative="1" as="geometry">
            <mxPoint x="720" y="1170" as="targetPoint" />
          </mxGeometry>
        </mxCell>
        <mxCell id="-xRFjcVjvACScI0wOPfe-36" style="edgeStyle=orthogonalEdgeStyle;rounded=0;orthogonalLoop=1;jettySize=auto;html=1;entryX=0.5;entryY=0;entryDx=0;entryDy=0;entryPerimeter=0;" edge="1" parent="1" source="-xRFjcVjvACScI0wOPfe-10" target="-xRFjcVjvACScI0wOPfe-30">
          <mxGeometry relative="1" as="geometry">
            <mxPoint x="890" y="1170" as="targetPoint" />
          </mxGeometry>
        </mxCell>
        <mxCell id="-xRFjcVjvACScI0wOPfe-10" value="" style="sketch=0;points=[[0,0,0],[0.25,0,0],[0.5,0,0],[0.75,0,0],[1,0,0],[0,1,0],[0.25,1,0],[0.5,1,0],[0.75,1,0],[1,1,0],[0,0.25,0],[0,0.5,0],[0,0.75,0],[1,0.25,0],[1,0.5,0],[1,0.75,0]];outlineConnect=0;fontColor=#232F3E;fillColor=#ED7100;strokeColor=#ffffff;dashed=0;verticalLabelPosition=bottom;verticalAlign=top;align=center;html=1;fontSize=12;fontStyle=0;aspect=fixed;shape=mxgraph.aws4.resourceIcon;resIcon=mxgraph.aws4.ecr;" vertex="1" parent="1">
          <mxGeometry x="678" y="943" width="82" height="82" as="geometry" />
        </mxCell>
        <mxCell id="-xRFjcVjvACScI0wOPfe-16" value="UPLOAD" style="edgeStyle=orthogonalEdgeStyle;rounded=0;orthogonalLoop=1;jettySize=auto;html=1;" edge="1" parent="1" source="-xRFjcVjvACScI0wOPfe-15" target="-xRFjcVjvACScI0wOPfe-1">
          <mxGeometry relative="1" as="geometry" />
        </mxCell>
        <mxCell id="-xRFjcVjvACScI0wOPfe-15" value="" style="whiteSpace=wrap;html=1;shape=mxgraph.basic.document" vertex="1" parent="1">
          <mxGeometry x="20" y="1239" width="60" height="70" as="geometry" />
        </mxCell>
        <mxCell id="-xRFjcVjvACScI0wOPfe-17" value="" style="whiteSpace=wrap;html=1;shape=mxgraph.basic.document" vertex="1" parent="1">
          <mxGeometry x="10" y="1260" width="60" height="70" as="geometry" />
        </mxCell>
        <mxCell id="-xRFjcVjvACScI0wOPfe-19" value="" style="whiteSpace=wrap;html=1;shape=mxgraph.basic.document" vertex="1" parent="1">
          <mxGeometry y="1280" width="60" height="70" as="geometry" />
        </mxCell>
        <mxCell id="-xRFjcVjvACScI0wOPfe-38" style="edgeStyle=orthogonalEdgeStyle;rounded=0;orthogonalLoop=1;jettySize=auto;html=1;" edge="1" parent="1" source="-xRFjcVjvACScI0wOPfe-20">
          <mxGeometry relative="1" as="geometry">
            <mxPoint x="500" y="1650" as="targetPoint" />
            <Array as="points">
              <mxPoint x="500" y="1410" />
              <mxPoint x="501" y="1410" />
            </Array>
          </mxGeometry>
        </mxCell>
        <mxCell id="-xRFjcVjvACScI0wOPfe-41" value="ERRORS" style="edgeLabel;html=1;align=center;verticalAlign=middle;resizable=0;points=[];" vertex="1" connectable="0" parent="-xRFjcVjvACScI0wOPfe-38">
          <mxGeometry x="-0.2092" y="-1" relative="1" as="geometry">
            <mxPoint as="offset" />
          </mxGeometry>
        </mxCell>
        <mxCell id="-xRFjcVjvACScI0wOPfe-20" value="" style="outlineConnect=0;dashed=0;verticalLabelPosition=bottom;verticalAlign=top;align=center;html=1;shape=mxgraph.aws3.lambda_function;fillColor=#F58534;gradientColor=none;" vertex="1" parent="1">
          <mxGeometry x="470" y="1108" width="60" height="62" as="geometry" />
        </mxCell>
        <mxCell id="-xRFjcVjvACScI0wOPfe-21" value="" style="outlineConnect=0;dashed=0;verticalLabelPosition=bottom;verticalAlign=top;align=center;html=1;shape=mxgraph.aws3.step_functions;fillColor=#D9A741;gradientColor=none;" vertex="1" parent="1">
          <mxGeometry x="609" y="1097" width="60" height="70" as="geometry" />
        </mxCell>
        <mxCell id="-xRFjcVjvACScI0wOPfe-54" style="edgeStyle=orthogonalEdgeStyle;rounded=0;orthogonalLoop=1;jettySize=auto;html=1;" edge="1" parent="1" source="-xRFjcVjvACScI0wOPfe-24" target="-xRFjcVjvACScI0wOPfe-40">
          <mxGeometry relative="1" as="geometry" />
        </mxCell>
        <mxCell id="-xRFjcVjvACScI0wOPfe-55" value="Errors alway send back" style="edgeLabel;html=1;align=center;verticalAlign=middle;resizable=0;points=[];" vertex="1" connectable="0" parent="-xRFjcVjvACScI0wOPfe-54">
          <mxGeometry x="0.1372" y="4" relative="1" as="geometry">
            <mxPoint as="offset" />
          </mxGeometry>
        </mxCell>
        <mxCell id="-xRFjcVjvACScI0wOPfe-56" style="edgeStyle=orthogonalEdgeStyle;rounded=0;orthogonalLoop=1;jettySize=auto;html=1;exitX=0.5;exitY=1;exitDx=0;exitDy=0;" edge="1" parent="1" source="-xRFjcVjvACScI0wOPfe-24" target="-xRFjcVjvACScI0wOPfe-40">
          <mxGeometry relative="1" as="geometry" />
        </mxCell>
        <mxCell id="-xRFjcVjvACScI0wOPfe-57" value="Success" style="edgeLabel;html=1;align=center;verticalAlign=middle;resizable=0;points=[];" vertex="1" connectable="0" parent="-xRFjcVjvACScI0wOPfe-56">
          <mxGeometry x="0.0216" relative="1" as="geometry">
            <mxPoint as="offset" />
          </mxGeometry>
        </mxCell>
        <mxCell id="-xRFjcVjvACScI0wOPfe-24" value="STEP FUNCTIONS" style="points=[[0,0],[0.25,0],[0.5,0],[0.75,0],[1,0],[1,0.25],[1,0.5],[1,0.75],[1,1],[0.75,1],[0.5,1],[0.25,1],[0,1],[0,0.75],[0,0.5],[0,0.25]];outlineConnect=0;gradientColor=none;html=1;whiteSpace=wrap;fontSize=12;fontStyle=0;shape=mxgraph.aws4.group;grIcon=mxgraph.aws4.group_aws_cloud_alt;strokeColor=#232F3E;fillColor=none;verticalAlign=top;align=left;spacingLeft=30;fontColor=#232F3E;dashed=0;labelBackgroundColor=#ffffff;container=1;pointerEvents=0;collapsible=0;recursiveResize=0;" vertex="1" parent="1">
          <mxGeometry x="590" y="1167" width="580" height="313" as="geometry" />
        </mxCell>
        <mxCell id="-xRFjcVjvACScI0wOPfe-27" value="&lt;div&gt;PRE-PROCESS FILE&lt;/div&gt;&lt;div&gt;AND UPLOAD ON REDSHIFT&lt;br&gt;&lt;/div&gt;" style="outlineConnect=0;dashed=0;verticalLabelPosition=bottom;verticalAlign=top;align=center;html=1;shape=mxgraph.aws3.lambda_function;fillColor=#F58534;gradientColor=none;" vertex="1" parent="-xRFjcVjvACScI0wOPfe-24">
          <mxGeometry x="170" y="16" width="60" height="72" as="geometry" />
        </mxCell>
        <mxCell id="-xRFjcVjvACScI0wOPfe-30" value="&lt;div&gt;EXECUTE DBT TEST&lt;/div&gt;&lt;div&gt;EXECUTE DBT MODELS&lt;/div&gt;&lt;div&gt;EXECUTE DBT TEST ON RESULTS&lt;br&gt;&lt;/div&gt;" style="outlineConnect=0;dashed=0;verticalLabelPosition=bottom;verticalAlign=top;align=center;html=1;shape=mxgraph.aws3.lambda_function;fillColor=#F58534;gradientColor=none;" vertex="1" parent="-xRFjcVjvACScI0wOPfe-24">
          <mxGeometry x="340" y="23" width="60" height="72" as="geometry" />
        </mxCell>
        <mxCell id="-xRFjcVjvACScI0wOPfe-31" style="edgeStyle=orthogonalEdgeStyle;rounded=0;orthogonalLoop=1;jettySize=auto;html=1;" edge="1" parent="-xRFjcVjvACScI0wOPfe-24" source="-xRFjcVjvACScI0wOPfe-27" target="-xRFjcVjvACScI0wOPfe-30">
          <mxGeometry relative="1" as="geometry" />
        </mxCell>
        <mxCell id="-xRFjcVjvACScI0wOPfe-25" style="edgeStyle=orthogonalEdgeStyle;rounded=0;orthogonalLoop=1;jettySize=auto;html=1;entryX=0.13;entryY=0.5;entryDx=0;entryDy=0;entryPerimeter=0;" edge="1" parent="1" source="-xRFjcVjvACScI0wOPfe-20" target="-xRFjcVjvACScI0wOPfe-21">
          <mxGeometry relative="1" as="geometry" />
        </mxCell>
        <mxCell id="-xRFjcVjvACScI0wOPfe-26" value="TRIGGERS" style="edgeLabel;html=1;align=center;verticalAlign=middle;resizable=0;points=[];" vertex="1" connectable="0" parent="-xRFjcVjvACScI0wOPfe-25">
          <mxGeometry x="0.033" y="-3" relative="1" as="geometry">
            <mxPoint x="1" y="1" as="offset" />
          </mxGeometry>
        </mxCell>
        <mxCell id="-xRFjcVjvACScI0wOPfe-32" value="REDSHIFT" style="outlineConnect=0;dashed=0;verticalLabelPosition=bottom;verticalAlign=top;align=center;html=1;shape=mxgraph.aws3.redshift;fillColor=#2E73B8;gradientColor=none;" vertex="1" parent="1">
          <mxGeometry x="1080" y="1180" width="67.5" height="90" as="geometry" />
        </mxCell>
        <mxCell id="-xRFjcVjvACScI0wOPfe-33" style="edgeStyle=orthogonalEdgeStyle;rounded=0;orthogonalLoop=1;jettySize=auto;html=1;entryX=0;entryY=0.5;entryDx=0;entryDy=0;entryPerimeter=0;" edge="1" parent="1" source="-xRFjcVjvACScI0wOPfe-30" target="-xRFjcVjvACScI0wOPfe-32">
          <mxGeometry relative="1" as="geometry" />
        </mxCell>
        <mxCell id="-xRFjcVjvACScI0wOPfe-46" style="edgeStyle=orthogonalEdgeStyle;rounded=0;orthogonalLoop=1;jettySize=auto;html=1;" edge="1" parent="1" source="-xRFjcVjvACScI0wOPfe-39" target="-xRFjcVjvACScI0wOPfe-45">
          <mxGeometry relative="1" as="geometry" />
        </mxCell>
        <mxCell id="-xRFjcVjvACScI0wOPfe-39" value="SNS" style="outlineConnect=0;dashed=0;verticalLabelPosition=bottom;verticalAlign=top;align=center;html=1;shape=mxgraph.aws3.sns;fillColor=#D9A741;gradientColor=none;" vertex="1" parent="1">
          <mxGeometry x="440" y="1654" width="84.5" height="76.5" as="geometry" />
        </mxCell>
        <mxCell id="-xRFjcVjvACScI0wOPfe-51" style="edgeStyle=orthogonalEdgeStyle;rounded=0;orthogonalLoop=1;jettySize=auto;html=1;" edge="1" parent="1" source="-xRFjcVjvACScI0wOPfe-40" target="-xRFjcVjvACScI0wOPfe-50">
          <mxGeometry relative="1" as="geometry" />
        </mxCell>
        <mxCell id="-xRFjcVjvACScI0wOPfe-40" value="SQS" style="outlineConnect=0;dashed=0;verticalLabelPosition=bottom;verticalAlign=top;align=center;html=1;shape=mxgraph.aws3.sqs;fillColor=#D9A741;gradientColor=none;" vertex="1" parent="1">
          <mxGeometry x="500" y="1645.75" width="70" height="93" as="geometry" />
        </mxCell>
        <mxCell id="-xRFjcVjvACScI0wOPfe-45" value="" style="shape=image;html=1;verticalAlign=top;verticalLabelPosition=bottom;labelBackgroundColor=#ffffff;imageAspect=0;aspect=fixed;image=https://cdn2.iconfinder.com/data/icons/social-media-2189/48/29-Slack-128.png" vertex="1" parent="1">
          <mxGeometry x="220" y="1730" width="128" height="128" as="geometry" />
        </mxCell>
        <mxCell id="-xRFjcVjvACScI0wOPfe-47" value="" style="html=1;verticalLabelPosition=bottom;align=center;labelBackgroundColor=#ffffff;verticalAlign=top;strokeWidth=2;strokeColor=#0080F0;shadow=0;dashed=0;shape=mxgraph.ios7.icons.mail;" vertex="1" parent="1">
          <mxGeometry x="305.57" y="1830" width="30" height="16.5" as="geometry" />
        </mxCell>
        <mxCell id="-xRFjcVjvACScI0wOPfe-48" value="&lt;div&gt;GRAFANA DASHBOARD&lt;/div&gt;&lt;div&gt;&amp;nbsp;with sumamry results&lt;/div&gt;" style="image;aspect=fixed;html=1;points=[];align=center;fontSize=12;image=img/lib/azure2/other/Grafana.svg;" vertex="1" parent="1">
          <mxGeometry x="1024" y="1610" width="68" height="52.800000000000004" as="geometry" />
        </mxCell>
        <mxCell id="-xRFjcVjvACScI0wOPfe-49" style="edgeStyle=orthogonalEdgeStyle;rounded=0;orthogonalLoop=1;jettySize=auto;html=1;exitX=0.5;exitY=1;exitDx=0;exitDy=0;exitPerimeter=0;entryX=0.515;entryY=0.019;entryDx=0;entryDy=0;entryPerimeter=0;" edge="1" parent="1" source="-xRFjcVjvACScI0wOPfe-32" target="-xRFjcVjvACScI0wOPfe-48">
          <mxGeometry relative="1" as="geometry" />
        </mxCell>
        <mxCell id="-xRFjcVjvACScI0wOPfe-50" value="&lt;div&gt;RETRY WITH BATCH PROCESS&lt;/div&gt;&lt;div&gt;SAVE LOGS on dynamo DB&lt;br&gt;&lt;/div&gt;" style="text;html=1;align=center;verticalAlign=middle;resizable=0;points=[];autosize=1;strokeColor=none;fillColor=none;" vertex="1" parent="1">
          <mxGeometry x="620" y="1690.5" width="200" height="40" as="geometry" />
        </mxCell>
        <mxCell id="-xRFjcVjvACScI0wOPfe-52" style="edgeStyle=orthogonalEdgeStyle;rounded=0;orthogonalLoop=1;jettySize=auto;html=1;entryX=0.015;entryY=0.549;entryDx=0;entryDy=0;entryPerimeter=0;" edge="1" parent="1" source="-xRFjcVjvACScI0wOPfe-50" target="-xRFjcVjvACScI0wOPfe-48">
          <mxGeometry relative="1" as="geometry" />
        </mxCell>
        <mxCell id="-xRFjcVjvACScI0wOPfe-53" value="Amazon DynamoDB" style="sketch=0;outlineConnect=0;fontColor=#232F3E;gradientColor=none;strokeColor=#ffffff;fillColor=#232F3E;dashed=0;verticalLabelPosition=middle;verticalAlign=bottom;align=center;html=1;whiteSpace=wrap;fontSize=10;fontStyle=1;spacing=3;shape=mxgraph.aws4.productIcon;prIcon=mxgraph.aws4.dynamodb;" vertex="1" parent="1">
          <mxGeometry x="680" y="1736.5" width="80" height="110" as="geometry" />
        </mxCell>
      </root>
    </mxGraphModel>
  </diagram>
</mxfile>
